<?xml version="1.0" ?><!DOCTYPE svg  PUBLIC '-//W3C//DTD SVG 1.1//EN'  'http://www.w3.org/Graphics/SVG/1.1/DTD/svg11.dtd'><svg enable-background="new 0 0 30 30" height="30px" id="Capa_1" version="1.1" viewBox="0 0 30 30" width="30px" xml:space="preserve" xmlns="http://www.w3.org/2000/svg" xmlns:xlink="http://www.w3.org/1999/xlink"><path d="M17.6,13.3l0.2-0.2c0.1-0.1,0.1-0.2,0.1-0.3c0-0.1,0-0.2-0.1-0.3c-0.1-0.1-0.2-0.1-0.3-0.1  c-0.1,0-0.2,0-0.3,0.1l-0.2,0.2c-0.5-0.4-1-0.7-1.6-0.7c-0.5,0-1,0.2-1.4,0.6c-0.4,0.4-0.6,0.9-0.6,1.3c0,0.5,0.2,1.1,0.6,1.8  l-1.5,1.5c-0.3-0.4-0.5-1-0.6-1.6c0-0.1-0.1-0.2-0.2-0.3C11.6,15,11.5,15,11.3,15c-0.2,0-0.3,0.1-0.4,0.2c-0.1,0.1-0.2,0.3-0.1,0.5  c0.1,0.8,0.5,1.5,0.9,2.1l-0.5,0.5c-0.1,0.1-0.1,0.2-0.1,0.3c0,0.1,0,0.2,0.1,0.3c0.1,0.1,0.2,0.1,0.3,0.1c0.1,0,0.2,0,0.3-0.1  l0.4-0.4c0.5,0.4,1.1,0.7,1.6,0.7c0.5,0,1-0.2,1.4-0.6c0.4-0.4,0.6-0.8,0.6-1.3c0-0.5-0.2-1.1-0.7-1.8l1.4-1.4  c0.2,0.3,0.3,0.7,0.4,1.1c0,0.1,0.1,0.2,0.2,0.3c0.1,0.1,0.2,0.1,0.4,0.1c0.2,0,0.3-0.1,0.4-0.2c0.1-0.1,0.2-0.3,0.1-0.6  C18.2,14.2,17.9,13.7,17.6,13.3z M14.5,17.8C14.3,18,14.1,18,13.8,18c-0.2,0-0.5-0.1-0.8-0.3l1.4-1.4c0.2,0.4,0.3,0.7,0.3,0.9  C14.7,17.4,14.6,17.6,14.5,17.8z M14.9,14.7c-0.2-0.4-0.3-0.7-0.3-0.9c0-0.2,0.1-0.4,0.3-0.6c0.2-0.2,0.4-0.2,0.6-0.2  c0.2,0,0.5,0.1,0.7,0.3L14.9,14.7z M10.7,21.1c-0.3-0.3-0.8-0.3-1.1,0s-0.3,0.8,0,1.1l1.6,1.6c0.1,0.1,0.3,0.2,0.5,0.2  s0.4-0.1,0.5-0.2c0.3-0.3,0.3-0.8,0-1.1L10.7,21.1z M7.4,17.8c-0.3-0.3-0.8-0.3-1.1,0s-0.3,0.8,0,1.1l1.6,1.6  c0.1,0.1,0.3,0.2,0.5,0.2s0.4-0.1,0.5-0.2c0.3-0.3,0.3-0.8,0-1.1L7.4,17.8z M29.6,0.3c-0.3-0.3-0.8-0.3-1.1,0l-3.2,3.2  c-0.5-0.3-1.2-0.5-2-0.5c-1.7-0.1-2.6-0.1-3.6-0.1l-1.6,0c-1.2,0-2,0.3-2.7,1.1L0.8,18.4c-0.4,0.4-0.6,0.9-0.6,1.5  c0,0.6,0.2,1.1,0.6,1.5l8,8c0.4,0.4,0.9,0.6,1.5,0.6c0.6,0,1.1-0.2,1.5-0.6l14.4-14.4c1-1,1-2.1,1-3.2l-0.1-1.1  c-0.1-2-0.1-2.8-0.2-4.2c-0.1-0.7-0.2-1.3-0.5-1.8l3.2-3.2C29.9,1.1,29.9,0.6,29.6,0.3z M25.1,13.8L14.3,24.7L14,24.4  c-0.3-0.3-0.8-0.3-1.1,0s-0.3,0.8,0,1.1l0.3,0.3l-2.5,2.5c-0.2,0.2-0.6,0.2-0.8,0l-8-8c-0.1-0.1-0.2-0.3-0.2-0.4s0.1-0.3,0.2-0.4  l2.5-2.5l0.2,0.2c0.1,0.1,0.3,0.2,0.5,0.2s0.4-0.1,0.5-0.2c0.3-0.3,0.3-0.8,0-1.1l-0.2-0.2L16.3,5c0.5-0.5,0.9-0.6,1.7-0.6l1.6,0  c1,0,1.9,0,3.6,0.1c0.4,0,0.7,0.1,1,0.2l-1.6,1.6c-0.9-0.4-2-0.3-2.7,0.4c-0.4,0.4-0.7,1-0.7,1.7s0.2,1.2,0.7,1.7  c0.4,0.4,1,0.7,1.7,0.7c0.6,0,1.2-0.2,1.7-0.7c0.4-0.4,0.7-1,0.7-1.7c0-0.4-0.1-0.7-0.3-1l1.6-1.6c0.1,0.2,0.1,0.5,0.2,0.8  c0.1,1.4,0.1,2.1,0.2,4.1l0.1,1.1C25.7,12.8,25.6,13.3,25.1,13.8z M21.2,8.7c0.1,0.1,0.3,0.2,0.5,0.2s0.4-0.1,0.5-0.2l0.2-0.2  c0,0.1-0.1,0.2-0.2,0.3c-0.3,0.3-0.9,0.3-1.2,0c-0.2-0.2-0.2-0.4-0.2-0.6s0.1-0.4,0.2-0.6c0.1-0.1,0.2-0.2,0.3-0.2l-0.2,0.2  C20.9,7.9,20.9,8.4,21.2,8.7z" fill="#262324"/></svg>